<?xml version="1.0" encoding="UTF-8"?>
<svg version="1.1" xmlns="http://www.w3.org/2000/svg" width="2000" height="2000">
<path d="M0 0 C1.10867432 0.2513974 1.10867432 0.2513974 2.23974609 0.50787354 C93.19254808 21.22495659 181.07289579 58.06674679 290 126 C291.21081549 126.82179438 292.42176245 127.64339507 293.6328125 128.46484375 C309.46812213 139.24126938 324.87570417 150.51426875 339.921875 162.3671875 C341.85823461 163.88861291 343.8021498 165.39957955 345.75 166.90625 C352.30901525 171.99235408 358.69758104 177.23148014 364.96850586 182.66943359 C368.35934043 185.60844196 371.79843168 188.45785508 375.3125 191.25 C381.68055438 196.41582583 387.56346591 202.08772941 393.49609375 207.7421875 C396.36348613 210.4727737 399.26619625 213.15833812 402.1993103 215.81819153 C408.85966204 221.86551842 415.28045511 228.12601138 421.62915039 234.4987793 C423.32519726 236.20023778 425.02659821 237.89621263 426.72851562 239.59179688 C431.80534869 244.66553588 436.79706602 249.75015513 441.45874023 255.21362305 C444.15925886 258.34362381 447.03172089 261.31274673 449.875 264.3125 C454.79493773 269.5394866 459.45374682 274.85862862 463.93359375 280.46875 C466.00112782 283.00138153 468.16113341 285.4073116 470.375 287.8125 C474.89653512 292.78070323 479.01152206 298.00803577 483.125 303.3125 C485.49001828 306.36060258 487.90380154 309.36527895 490.33422852 312.36132812 C514.37912598 342.06501649 535.51117558 374.16652436 555 407 C555.49000488 407.8254834 555.98000977 408.6509668 556.48486328 409.50146484 C583.37117419 455.08568981 606.13543321 503.18505986 624 553 C624.2640564 553.73395996 624.52811279 554.46791992 624.8001709 555.22412109 C651.09589807 628.44494795 667.13918096 704.21698472 673.80145264 781.69152832 C673.92811942 783.1642584 674.05640949 784.63685039 674.18682861 786.10925293 C681.58917636 869.90719996 674.53364185 956.1855357 654 1050 C653.83004517 1050.74618591 653.66009033 1051.49237183 653.48498535 1052.26116943 C647.61226426 1077.90052482 640.11653828 1102.98832548 632 1128 C631.78601562 1128.66022156 631.57203125 1129.32044312 631.3515625 1130.00067139 C603.84034522 1214.62501942 561.6447671 1298.88000786 507.29785156 1369.30957031 C505.31469986 1371.89259183 503.37927713 1374.51080535 501.4375 1377.125 C488.61699076 1394.21128447 475.0749497 1410.77867534 460.9296875 1426.78515625 C459.35511981 1428.59240297 457.80241523 1430.41338131 456.2578125 1432.24609375 C450.88527242 1438.60548005 445.46361973 1444.75045227 439.44921875 1450.5234375 C437.52421745 1452.46993004 435.75845155 1454.42627329 433.984375 1456.50390625 C429.32052682 1461.88280667 424.27091586 1466.87874833 419.23022461 1471.90014648 C417.56573723 1473.5592732 415.90666553 1475.22368051 414.24804688 1476.88867188 C409.23787475 1481.90202774 404.20163222 1486.8357018 398.80834961 1491.44116211 C395.61408311 1494.19469142 392.56852822 1497.10808637 389.5 1500 C384.41407066 1504.76611055 379.31074134 1509.48385821 374 1514 C373.05125 1514.81597656 372.1025 1515.63195313 371.125 1516.47265625 C364.41158852 1522.22289282 357.56180619 1527.7636018 350.5859375 1533.19140625 C348.17465148 1535.07057815 345.78624796 1536.9740572 343.4140625 1538.90234375 C334.60916412 1546.05492116 325.54972577 1552.76431544 316.31152344 1559.34570312 C313.99304086 1561.00498047 311.6862843 1562.6793333 309.3828125 1564.359375 C289.30565104 1578.99478292 268.44407905 1592.45112844 247 1605 C246.26185059 1605.4321582 245.52370117 1605.86431641 244.76318359 1606.30957031 C175.43973184 1646.73281997 101.61949878 1677.55296929 -55 1715 C-55.70219666 1715.11903687 -56.40439331 1715.23807373 -57.12786865 1715.36071777 C-74.72200087 1718.31923586 -92.36769055 1720.47733331 -110.125 1722.1875 C-110.93601166 1722.26640472 -111.74702332 1722.34530945 -112.58261108 1722.42660522 C-140.03253545 1725.06094091 -167.3909438 1726.38694476 -194.95771027 1726.31785583 C-197.23318142 1726.31239028 -199.50864208 1726.31004027 -201.78411865 1726.3079834 C-227.28376369 1726.27215754 -252.60313083 1725.41532948 -278 1723 C-278.78415283 1722.92738953 -279.56830566 1722.85477905 -280.3762207 1722.77996826 C-346.33393528 1716.66852564 -411.06138739 1702.56915449 -474 1682 C-475.30614329 1681.57614397 -476.6122953 1681.15231482 -477.91845703 1680.72851562 C-546.89612513 1658.18074256 -613.15427684 1625.41284829 -674 1586 C-675.546875 1584.99839844 -675.546875 1584.99839844 -677.125 1583.9765625 C-693.46985852 1573.21619731 -709.34059424 1561.7289573 -725 1550 C-725.8979126 1549.32807617 -725.8979126 1549.32807617 -726.81396484 1548.64257812 C-735.78901969 1541.9001109 -744.42659327 1534.76536878 -753.06396484 1527.59960938 C-754.76066999 1526.19774152 -756.46453943 1524.80592694 -758.17578125 1523.421875 C-763.48066818 1519.12994385 -768.6216161 1514.71056047 -773.66796875 1510.1171875 C-775.75823889 1508.21948831 -777.86986115 1506.35266585 -780 1504.5 C-784.71451674 1500.38534225 -789.37378531 1496.21372641 -794 1492 C-794.75434326 1491.31550781 -794.75434326 1491.31550781 -795.52392578 1490.6171875 C-804.41664968 1482.52256325 -812.9887745 1474.11665314 -821.5 1465.625 C-822.01846497 1465.10912323 -822.53692993 1464.59324646 -823.07110596 1464.06173706 C-828.35880634 1458.79487914 -833.56127848 1453.50234833 -838.41699219 1447.828125 C-841.13605814 1444.68803156 -844.01824374 1441.70178471 -846.875 1438.6875 C-851.68933327 1433.56843001 -856.28090011 1428.35729114 -860.66796875 1422.86328125 C-863.49004366 1419.3983216 -866.42940033 1416.0473647 -869.375 1412.6875 C-874.98407999 1406.26080057 -880.31177326 1399.66419533 -885.51953125 1392.91015625 C-887.12634837 1390.8369806 -888.74946191 1388.77727566 -890.375 1386.71875 C-898.26208087 1376.70529297 -905.75365747 1366.48459841 -913 1356 C-913.93460466 1354.65865124 -914.8694975 1353.31750323 -915.8046875 1351.9765625 C-922.42142514 1342.45719388 -928.79368602 1332.79153503 -935 1323 C-935.49725586 1322.21560547 -935.99451172 1321.43121094 -936.50683594 1320.62304688 C-984.62023031 1244.43085768 -1021.51632146 1161.33228141 -1044 1074 C-1044.17533264 1073.32422913 -1044.35066528 1072.64845825 -1044.53131104 1071.95220947 C-1057.29104575 1022.75513032 -1065.44873636 972.92554694 -1069.80145264 922.30847168 C-1069.92811942 920.8357416 -1070.05640949 919.36314961 -1070.18682861 917.89074707 C-1074.00837298 874.62912482 -1073.99333758 829.35160145 -1070.18359375 786.08984375 C-1069.98676935 783.84939581 -1069.79798693 781.60834098 -1069.609375 779.3671875 C-1063.87920359 712.23224762 -1050.837504 646.09080276 -1030 582 C-1029.77677063 581.31311096 -1029.55354126 580.62622192 -1029.32354736 579.91851807 C-1003.07018098 499.41440606 -965.03839927 422.35436768 -873 296 C-872.51047852 295.41669922 -872.02095703 294.83339844 -871.51660156 294.23242188 C-868.8139317 291.01309256 -866.09752113 287.80588823 -863.36962891 284.60791016 C-861.93414579 282.9226888 -860.5041151 281.23293191 -859.07421875 279.54296875 C-852.73618057 272.07358043 -846.22746382 264.79774896 -839.53320312 257.64648438 C-838.0270318 256.02902905 -836.53542114 254.39929949 -835.046875 252.765625 C-827.13053573 244.12113188 -818.90323256 235.79571425 -810.625 227.5 C-810.06101501 226.93342682 -809.49703003 226.36685364 -808.91595459 225.78311157 C-803.34351589 220.19050711 -797.77059468 214.64605347 -791.76171875 209.51660156 C-788.81585744 206.98061342 -786.01453879 204.29169441 -783.1875 201.625 C-778.24385388 196.99853326 -773.1909794 192.60355546 -767.90234375 188.37109375 C-764.40479309 185.51374079 -761.01952472 182.54071914 -757.625 179.5625 C-750.95966401 173.73906574 -744.06534835 168.32524399 -737 163 C-734.95731916 161.41797528 -732.91567315 159.83461362 -730.875 158.25 C-655.69286945 100.34130988 -571.24531631 55.72861948 -290.20547485 -17.74084473 C-288.00981569 -17.9988466 -285.81575877 -18.26777393 -283.62182617 -18.54003906 C-274.20111327 -19.70168116 -264.79400039 -20.60678899 -255.3125 -21.125 C-254.55541748 -21.16669312 -253.79833496 -21.20838623 -253.01831055 -21.25134277 C-169.49687954 -25.62258149 -86.27382655 -19.40840465 0 0 Z M-367.2097168 96.78173828 C-368.45464905 97.08008575 -368.45464905 97.08008575 -369.72473145 97.38446045 C-370.62381226 97.61079163 -371.52289307 97.8371228 -372.44921875 98.0703125 C-373.3973645 98.30244446 -374.34551025 98.53457642 -375.3223877 98.77374268 C-378.44738736 99.54489336 -381.56771822 100.33301738 -384.6875 101.125 C-385.76021149 101.39532043 -386.83292297 101.66564087 -387.93814087 101.94415283 C-443.55183392 116.01341415 -496.70199215 136.41143032 -548 162 C-549.14065918 162.56831543 -550.28131836 163.13663086 -551.45654297 163.72216797 C-568.77940732 172.40465611 -585.47107054 181.90574408 -602 192 C-602.83724609 192.51111328 -603.67449219 193.02222656 -604.53710938 193.54882812 C-613.15692377 198.83241427 -621.65521906 204.29086052 -630 210 C-630.79760742 210.54366211 -631.59521484 211.08732422 -632.41699219 211.64746094 C-652.29798421 225.22980956 -671.48451112 239.6071829 -690 255 C-690.58749023 255.48839355 -691.17498047 255.97678711 -691.78027344 256.47998047 C-698.12880741 261.77398205 -704.37984751 267.16330796 -710.48828125 272.734375 C-712.59044379 274.63057138 -714.71246693 276.49682503 -716.84765625 278.35546875 C-727.82740374 287.94852947 -738.24291483 298.14409788 -748.5625 308.4375 C-749.4901416 309.36054932 -750.4177832 310.28359863 -751.37353516 311.23461914 C-755.8815571 315.75285872 -760.25495206 320.32156719 -764.41088867 325.16577148 C-766.97853401 328.12947088 -769.68462397 330.96066845 -772.375 333.8125 C-777.10196376 338.85910944 -781.57509143 344.03334148 -785.8984375 349.43359375 C-787.98001427 351.97559363 -790.1503838 354.39529335 -792.375 356.8125 C-797.33477033 362.27593031 -801.86906533 368.03202791 -806.36474609 373.87597656 C-807.52088097 375.3776746 -808.6803934 376.87677517 -809.84228516 378.37402344 C-818.75602027 389.8634302 -827.31785406 401.50835406 -835.39355469 413.60205078 C-837.02284716 416.03410407 -838.66995483 418.4532957 -840.3203125 420.87109375 C-854.21261556 441.32519993 -867.03590317 462.48368128 -878.59375 484.34326172 C-880.00935997 487.0176832 -881.44157662 489.68274786 -882.875 492.34765625 C-896.13083823 517.17468127 -907.84515626 542.75456037 -918 569 C-918.51247183 570.31496507 -919.02500637 571.62990571 -919.53759766 572.94482422 C-946.08331166 641.26489261 -962.29678724 712.91032176 -968.80859375 785.88085938 C-968.98512264 787.83528641 -969.17178371 789.78879123 -969.359375 791.7421875 C-976.96444621 873.04402018 -968.62627845 956.62997097 -940 1071 C-939.81284424 1071.64632385 -939.62568848 1072.29264771 -939.43286133 1072.95855713 C-916.66623934 1151.40184552 -880.21070061 1227.36975783 -833 1294 C-832.49645996 1294.71075684 -831.99291992 1295.42151367 -831.47412109 1296.15380859 C-814.1509852 1320.52129566 -795.76468535 1344.27588434 -775.484375 1366.26953125 C-773.51244622 1368.4367926 -771.57823555 1370.62490124 -769.65625 1372.8359375 C-760.20643684 1383.66310789 -750.14225723 1393.94986512 -740 1404.125 C-739.22366211 1404.90593018 -738.44732422 1405.68686035 -737.64746094 1406.49145508 C-733.52005772 1410.60777266 -729.30634311 1414.55278764 -724.88916016 1418.35595703 C-721.91163033 1420.94715448 -719.05834886 1423.66698035 -716.1875 1426.375 C-711.23905028 1431.00596215 -706.18127256 1435.40498195 -700.88671875 1439.640625 C-698.12018942 1441.9017667 -695.43568228 1444.23195237 -692.75585938 1446.59399414 C-684.81109899 1453.58897204 -676.56823249 1460.08369711 -668.09667969 1466.42675781 C-666.08074808 1467.93941073 -664.07429809 1469.46375807 -662.0703125 1470.9921875 C-630.22643716 1495.20813857 -596.26727005 1516.17007432 -561 1535 C-560.0920166 1535.48823242 -559.1840332 1535.97646484 -558.24853516 1536.47949219 C-528.21588374 1552.59820162 -497.06989043 1566.04881003 -465.125 1577.875 C-464.21572754 1578.2150708 -463.30645508 1578.5551416 -462.36962891 1578.90551758 C-461.54897949 1579.20224365 -460.72833008 1579.49896973 -459.8828125 1579.8046875 C-459.17527832 1580.06233887 -458.46774414 1580.31999023 -457.73876953 1580.58544922 C-455.90394818 1581.21966268 -455.90394818 1581.21966268 -454 1580 C-454.65484375 1579.319375 -455.3096875 1578.63875 -455.984375 1577.9375 C-518.06773844 1512.39035669 -542.62681062 1417.42171868 -550.6875 1249.625 C-550.790625 1229.61875 -550.89375 1209.6125 -551 1189 C-496.55 1189 -442.1 1189 -386 1189 C-386.1875 1250.0625 -386.1875 1250.0625 -386.27026367 1269.14086914 C-386.28031434 1274.92564913 -386.28031434 1274.92564913 -386.28633118 1280.71043396 C-386.29085282 1283.23075463 -386.3012194 1285.75107003 -386.31672668 1288.27134705 C-386.6610899 1347.33853135 -377.52085264 1413.97889417 -337 1460 C-336.20851563 1460.92425781 -335.41703125 1461.84851562 -334.6015625 1462.80078125 C-307.16822462 1494.08517129 -265.47400313 1509.10645371 -224.78540039 1511.93847656 C-223.44034945 1512.02281093 -222.09521294 1512.1057902 -220.75 1512.1875 C-220.05534637 1512.23080444 -219.36069275 1512.27410889 -218.64498901 1512.31872559 C-205.70513263 1513.10353088 -192.93144829 1513.04943012 -180 1512 C-179.2270459 1511.93796387 -178.4540918 1511.87592773 -177.65771484 1511.81201172 C-135.44639753 1508.16296793 -94.73651841 1492.22872636 -66.67480469 1459.45214844 C-30.38771415 1415.46861749 -19.70457355 1356.47105705 -18 1301 C-17.97663574 1300.24025879 -17.95327148 1299.48051758 -17.92919922 1298.69775391 C-16.71051334 1251.04611203 -24.42396972 1203.21487272 -45 1160 C-45.29374512 1159.37544922 -45.58749023 1158.75089844 -45.89013672 1158.10742188 C-64.21179031 1119.35289163 -92.28059181 1084.54590227 -121 1053 C-121.78407227 1052.13109131 -122.56814453 1051.26218262 -123.37597656 1050.36694336 C-129.90036232 1043.1781284 -136.62151464 1036.22213593 -143.4987793 1029.37084961 C-145.20023778 1027.67480274 -146.89621263 1025.97340179 -148.59179688 1024.27148438 C-153.70791339 1019.15257547 -158.82234359 1014.09751721 -164.35864258 1009.42700195 C-166.1594191 1007.86140047 -167.82962728 1006.20333409 -169.5 1004.5 C-172.40336132 1001.55117217 -175.44254885 998.8386789 -178.578125 996.140625 C-181.09579446 993.91533006 -183.54666727 991.63005402 -185.99609375 989.33032227 C-191.57710797 984.09062007 -197.24234571 979.09459852 -203.22265625 974.30859375 C-206.42444734 971.64718934 -209.46213046 968.84516554 -212.5 966 C-217.2297738 961.57579758 -222.0801616 957.39270358 -227.1328125 953.3359375 C-230.41578069 950.6612577 -233.61272585 947.89802003 -236.8125 945.125 C-241.94363402 940.69312109 -247.18255234 936.44207354 -252.53833008 932.28564453 C-257.26370803 928.60824138 -261.88990861 924.82061777 -266.5 921 C-272.30798332 916.18931414 -278.17222495 911.46705408 -284.11767578 906.82763672 C-288.46996312 903.42831348 -292.75785067 899.95789413 -297.01953125 896.4453125 C-299.29996318 894.57434214 -301.58877416 892.71644076 -303.88671875 890.8671875 C-310.63836591 885.42736621 -317.28465894 879.95107912 -323.671875 874.08203125 C-326.06918713 871.93812628 -328.54511239 869.93859704 -331.0625 867.9375 C-338.34841448 862.034987 -345.05150796 855.51659124 -351.83544922 849.05126953 C-353.81603529 847.17433696 -355.8112211 845.31542228 -357.81640625 843.46484375 C-367.64474522 834.36986936 -377.14888581 824.95890687 -386.625 815.5 C-387.28406342 814.84352478 -387.94312683 814.18704956 -388.62216187 813.51068115 C-401.31509931 800.85709951 -401.31509931 800.85709951 -406.54931641 794.69580078 C-409.05587285 791.76571982 -411.729956 788.99201567 -414.375 786.1875 C-419.85371214 780.32566113 -425.00612798 774.28261319 -430 768 C-430.94302074 766.83643679 -431.88709268 765.67372501 -432.83203125 764.51171875 C-439.83752487 755.87104179 -446.52755271 747.0457534 -453 738 C-453.53882813 737.25121582 -454.07765625 736.50243164 -454.6328125 735.73095703 C-505.79257695 664.46645638 -536.55175637 586.56509332 -543 499 C-543.07057617 498.06784668 -543.14115234 497.13569336 -543.21386719 496.17529297 C-548.98334494 415.35681489 -538.84136898 330.04647946 -508 255 C-507.66000977 254.17209961 -507.32001953 253.34419922 -506.96972656 252.49121094 C-496.24619885 226.72208395 -482.40344632 201.86499519 -465 180 C-464.37222656 179.19304687 -463.74445313 178.38609375 -463.09765625 177.5546875 C-451.89893036 163.31009137 -440.02801357 149.54819141 -426 138 C-424.52853516 136.78763672 -424.52853516 136.78763672 -423.02734375 135.55078125 C-403.36529856 119.61390199 -381.92459197 107.5403287 -359 97 C-362.08119124 96.02634259 -364.0828184 96.0167445 -367.2097168 96.78173828 Z M-24 99 C-20.45480691 101.91050379 -16.50187501 103.86972537 -12.4375 105.9375 C9.69001205 117.48135192 29.42334252 131.94660643 47.29785156 149.34472656 C48.92456923 150.9266465 50.56631204 152.49142879 52.2109375 154.0546875 C59.05518699 160.63929006 64.96970147 167.70480736 70.68847656 175.27832031 C71.9463205 176.92953316 73.22862036 178.55737563 74.5234375 180.1796875 C147.89297291 272.99099255 153.78595953 391.08393602 156 504 C100.56 504 45.12 504 -12 504 C-12 477.6 -12 451.2 -12 424 C-16.65385463 374.35888392 -24.35324839 321.94700913 -57 282 C-57.75152344 281.03578125 -58.50304688 280.0715625 -59.27734375 279.078125 C-63.76406426 273.4026153 -68.41061792 268.5741916 -74 264 C-74.50402344 263.5359375 -75.00804687 263.071875 -75.52734375 262.59375 C-111.24327313 229.87686813 -164.01733114 225.24546493 -210.05029297 227.12451172 C-252.22242752 229.4611869 -292.35558996 244.73419834 -321.35205078 276.109375 C-329.9543732 285.97846904 -336.94422282 297.43665283 -343 309 C-343.31888184 309.60118652 -343.63776367 310.20237305 -343.96630859 310.82177734 C-358.59815131 338.76983261 -365.79655956 370.7945326 -369 402 C-369.10296387 402.99306152 -369.20592773 403.98612305 -369.31201172 405.00927734 C-374.77595699 460.29611692 -370.72085072 518.69882868 -348 570 C-347.61134766 570.87833496 -347.22269531 571.75666992 -346.82226562 572.66162109 C-337.79702275 592.77954851 -326.96891561 611.713467 -313.86181641 629.46777344 C-312.22111018 631.6992716 -310.62383153 633.9510505 -309.05078125 636.23046875 C-302.58665743 645.58494123 -295.73491282 654.49010404 -288.46484375 663.23095703 C-286.38897534 665.73791412 -284.35452252 668.2779474 -282.3125 670.8125 C-278.47547984 675.50140904 -274.44273746 679.98448782 -270.33984375 684.44140625 C-268.33094152 686.63811903 -266.37485887 688.86549369 -264.4375 691.125 C-261.19581987 694.8624665 -257.70718023 698.31114123 -254.18359375 701.78125 C-252.20789518 703.78875767 -250.3772707 705.84789545 -248.5625 708 C-245.19136669 711.93169127 -241.42975411 715.288921 -237.546875 718.70703125 C-235.06801377 720.93876674 -232.7149283 723.24876246 -230.375 725.625 C-227.12491293 728.91472228 -223.78206524 731.99843614 -220.2734375 735.0078125 C-217.41895901 737.50915963 -214.65059517 740.0995844 -211.875 742.6875 C-206.70409072 747.49592347 -201.40963546 752.13305917 -196.02758789 756.703125 C-192.56920055 759.64273006 -189.1677273 762.62957132 -185.8125 765.6875 C-181.65277791 769.46168687 -177.34965851 773.01786112 -172.984375 776.55078125 C-169.61237983 779.31811237 -166.30350975 782.15165243 -163 785 C-157.07770843 790.09882015 -151.07129437 795.07905614 -145 800 C-143.73922178 801.03080794 -142.47883109 802.06208999 -141.21875 803.09375 C-134.01081902 808.98616837 -126.74270524 814.76421615 -119.33984375 820.41015625 C-114.82258932 823.88528049 -110.42459661 827.50732963 -106.01171875 831.11328125 C-101.71062331 834.62337063 -97.37590262 838.08373064 -93 841.5 C-82.53424037 849.68674326 -72.12099335 857.92055503 -62.33203125 866.9140625 C-59.91220935 869.07852631 -57.41364222 871.10160813 -54.875 873.125 C-47.95282097 878.73468722 -41.55290639 884.88189653 -35.09716797 891.01611328 C-33.07668983 892.92745267 -31.04327039 894.82368776 -29.00390625 896.71484375 C-20.46548937 904.6494195 -12.12618666 912.76872348 -3.875 921 C-3.38345428 921.48895752 -2.89190857 921.97791504 -2.38546753 922.48168945 C2.76245192 927.60813721 7.78255906 932.77641951 12.51123047 938.29296875 C14.56308431 940.64563554 16.7641461 942.82298436 19 945 C23.21656978 949.17858266 27.15592379 953.48071679 31 958 C31.89116536 959.02800457 32.78316328 960.05528773 33.67578125 961.08203125 C48.07248291 977.68537022 61.26334019 995.09725574 74 1013 C75.43498913 1009.02611385 74.77464833 1005.19227985 74.2981205 1001.09793758 C74.21009013 1000.2922435 74.12205977 999.48654941 74.03136182 998.65644035 C73.7326648 995.93893936 73.42373757 993.22269811 73.11489868 990.5063324 C72.89725158 988.54580553 72.68023003 986.58520913 72.46378267 984.62454945 C71.86561133 979.22289867 71.25849185 973.82228502 70.64994621 968.42179453 C69.99582297 962.60296587 69.34991048 956.7832253 68.70298767 950.96359253 C67.43375984 939.55771864 66.15689536 928.15271189 64.87748362 916.74797636 C63.46428691 904.1482642 62.05778996 891.54780645 60.65202032 878.94726375 C57.85637901 853.88881832 55.05302956 828.83124078 52.24578634 803.77409271 C49.75031238 781.49944936 47.2599484 759.22424098 44.77441406 736.94848633 C44.61480994 735.51810674 44.45520582 734.08772714 44.29560168 732.65734755 C44.21669777 731.95020374 44.13779386 731.24305993 44.05649892 730.51448751 C43.65932836 726.95501563 43.26215216 723.39554438 42.86496925 719.83607388 C42.78661654 719.13388484 42.70826383 718.43169581 42.62753679 717.70822833 C40.55207691 699.10861315 38.47335718 680.50936239 36.39350545 661.91023785 C36.28256589 660.91815708 36.28256589 660.91815708 36.16938511 659.90603428 C35.79795506 656.58453566 35.42651434 653.26303823 35.05506177 649.94154213 C34.01964711 640.68213189 32.98547987 631.42258302 31.95167923 622.16299248 C30.69250632 610.88562367 29.43083224 599.60853779 28.16601564 588.33180051 C27.52022865 582.57374961 26.87548795 576.81558669 26.23356056 571.05710411 C25.64663161 565.79233329 25.05669322 560.52790899 24.46427958 555.26375259 C24.24976397 553.35278866 24.03636853 551.44169861 23.82416768 549.53047626 C23.53697726 546.94537567 23.24580068 544.36075527 22.95356178 541.77622128 C22.87087264 541.02318162 22.7881835 540.27014197 22.70298862 539.49428293 C22.36203698 536.51122914 21.95296814 533.85890441 21 531 C59.61 531 98.22 531 138 531 C138.66 538.59 139.32 546.18 140 554 C140.78990847 561.83654006 140.78990847 561.83654006 141.61270303 569.66920978 C141.75670724 571.01058647 141.75670724 571.01058647 141.90362062 572.37906168 C142.00323755 573.3065966 142.10285449 574.23413152 142.20549011 575.18977356 C142.42103246 577.21259159 142.63637728 579.23543067 142.85154516 581.25828856 C143.43579501 586.74569995 144.02279613 592.23281386 144.61029637 597.71987808 C145.24666934 603.66812882 145.88041584 609.6166595 146.51449585 615.56515503 C147.61250129 625.86254529 148.71211781 636.15976253 149.81288719 646.45685768 C150.97059799 657.28668901 152.12733593 668.11662356 153.28283119 678.94669151 C153.39131573 679.96347417 153.39131573 679.96347417 153.50199188 681.00079789 C153.86953476 684.44568121 154.2370603 687.89056637 154.60457889 691.33545228 C157.20474257 715.70746726 159.80694773 740.07926388 162.41040039 764.45092773 C164.92044441 787.9482244 167.42969265 811.4456058 169.93774414 834.94311523 C170.01468461 835.66395374 170.09162508 836.38479225 170.17089707 837.12747435 C171.25160595 847.25241761 172.33226057 857.37736667 173.41289709 867.50231765 C174.62475669 878.85674536 175.83663364 890.21117121 177.04854095 901.56559382 C177.19771897 902.96325289 177.34689638 904.36091202 177.49607319 905.75857122 C179.44585539 924.02636419 181.39612068 942.29410546 183.34717375 960.56176275 C183.89671938 965.70719963 184.44614943 970.85264884 184.99547333 975.9981094 C186.16744423 986.97536387 187.33974605 997.95258159 188.5150769 1008.92947689 C189.12334786 1014.61078111 189.73109165 1020.2921416 190.33847046 1025.97354126 C190.51249443 1027.60133121 190.51249443 1027.60133121 190.69003404 1029.2620058 C192.14614093 1042.89157281 193.57960287 1056.52323391 194.98178326 1070.15845395 C195.23613459 1072.62888818 195.49157542 1075.09920687 195.74749666 1077.56947893 C195.82834487 1078.34994876 195.90919309 1079.13041859 195.99249124 1079.93453902 C196.1504866 1081.45941542 196.30853507 1082.98428631 196.46664045 1084.50915131 C196.90524002 1088.74668435 197.33597199 1092.98491391 197.7599645 1097.22393224 C198.06757352 1100.27913513 198.38597555 1103.33321625 198.70259094 1106.38749695 C198.80656067 1107.45714121 198.9105304 1108.52678547 199.01765072 1109.62884319 C199.11877443 1110.58592084 199.21989813 1111.54299848 199.32408619 1112.52907848 C199.40718031 1113.35220065 199.49027443 1114.17532282 199.57588655 1115.02338809 C199.86064856 1117.22266615 199.86064856 1117.22266615 202 1119 C206.57274993 1071.40852758 211.14548249 1023.81705348 215.71812439 976.22557068 C215.78623513 975.5166827 215.85434587 974.80779472 215.92452057 974.07742528 C217.40617479 958.65655422 218.88782594 943.23568286 220.36947394 927.8148112 C221.09649443 920.2480414 221.82351559 912.68127166 222.55053711 905.11450195 C222.62286909 904.36167759 222.69520107 903.60885323 222.76972492 902.83321601 C225.0973476 878.60754354 227.42501458 854.38187533 229.75270553 830.15620943 C232.15274129 805.17760541 234.55273037 780.19899691 236.95266399 755.22038308 C237.29475587 751.65987608 237.63684826 748.09936914 237.97894096 744.53886223 C238.07989458 743.48813493 238.07989458 743.48813493 238.18288767 742.41618082 C239.11814028 732.68206477 240.05342446 722.94795176 240.9887343 713.21384121 C241.18470554 711.17429112 241.38067514 709.13474086 241.57664412 707.09519055 C241.64092385 706.42619847 241.70520359 705.75720638 241.77143119 705.06794181 C241.90068148 703.72276777 242.02993173 702.37759373 242.15918191 701.03241968 C242.60480604 696.39459501 243.05045173 691.75677242 243.4961012 687.11895019 C244.70373784 674.55086481 245.91101722 661.98274531 247.11744785 649.41454411 C247.56900736 644.71069677 248.02059446 640.00685209 248.47219849 635.30300903 C248.58094204 634.17028766 248.68968559 633.03756628 248.8017244 631.87052002 C250.19476296 617.36162894 251.59285835 602.85323728 252.9964836 588.34536669 C253.50390874 583.098158 254.0101626 577.85083617 254.51632435 572.60350547 C254.96910604 567.91110991 255.42389975 563.2189157 255.88040814 558.52688131 C256.08587288 556.41138524 256.29027057 554.29578949 256.49416029 552.18014109 C256.73551241 549.67577475 256.97855723 547.17157065 257.22371805 544.66757429 C257.32755229 543.58441328 257.43138654 542.50125228 257.53836727 541.38526821 C257.67331094 539.99366345 257.67331094 539.99366345 257.81098074 538.57394546 C257.99593952 536.05529304 258 533.52543458 258 531 C296.28 531 334.56 531 374 531 C374.33 536.61 374.66 542.22 375 548 C375.31236923 551.70690698 375.64021833 555.40290391 376.01323795 559.10303593 C376.1106291 560.0968429 376.20802024 561.09064987 376.30836263 562.1145722 C376.63047134 565.39319533 376.95731468 568.67132759 377.28419495 571.94947815 C377.52045844 574.34413162 377.75642584 576.73881432 377.99212497 579.1335234 C378.50261709 584.31325038 379.0151721 589.49276879 379.52960396 594.67210579 C380.29451674 602.37341941 381.05552062 610.07511589 381.81576055 617.77689202 C383.09512715 630.73667983 384.37760898 643.69615756 385.66189766 656.65545845 C386.9325696 669.4774626 388.20183766 682.29960446 389.46925163 695.12193108 C389.58768117 696.32006135 389.58768117 696.32006135 389.70850323 697.54239628 C390.10949661 701.59924795 390.51046511 705.65610207 390.91142403 709.71295714 C393.74774491 738.41006042 396.58718206 767.10685459 399.4284668 795.8034668 C402.18786433 823.67310181 404.945841 851.54287685 407.7019043 879.4128418 C407.78693396 880.27267611 407.87196362 881.13251043 407.95956994 882.01840033 C408.81351032 890.65360596 409.66742193 899.28881443 410.52131246 907.92402499 C412.26061852 925.51324486 414.00011658 943.10244574 415.73973083 960.69163513 C415.81970641 961.50026831 415.89968199 962.30890149 415.98208107 963.14203871 C421.31816948 1017.09501089 426.65874701 1071.04753889 432 1125 C432.33 1125 432.66 1125 433 1125 C436.27372449 1097.27935641 439.15413163 1069.52223732 441.98560679 1041.75343513 C442.63779245 1035.36196707 443.29242613 1028.97074963 443.94673157 1022.57949829 C445.07653945 1011.54098813 446.20470016 1000.50231041 447.33180428 989.46352386 C448.5138131 977.88702112 449.69663493 966.31060192 450.88052177 954.73429108 C450.99175036 953.64666156 450.99175036 953.64666156 451.105226 952.53705973 C451.40635599 949.5925354 451.70749154 946.64801164 452.00863451 943.70348863 C454.82370242 916.17821639 457.63655632 888.65271833 460.44824493 861.12710071 C462.93813343 836.75190798 465.42944316 812.37686096 467.92211914 788.00195312 C468.04107473 786.83872841 468.04107473 786.83872841 468.16243346 785.65200421 C468.40237263 783.30572401 468.6423122 780.95944386 468.8822518 778.61316371 C469.20106115 775.4956429 469.5198696 772.37812201 469.83867741 769.26060104 C469.91736481 768.49114477 469.99605221 767.7216885 470.07712409 766.92891537 C472.54471037 742.7991259 475.01107676 718.66921174 477.47723901 694.53927669 C478.29248754 686.56256055 479.10781156 678.58585215 479.92337346 670.60916805 C479.99634695 669.89544255 480.06932043 669.18171705 480.14450523 668.4463635 C480.25370175 667.37835645 480.25370175 667.37835645 480.36510427 666.28877351 C481.77437785 652.50523447 483.18309587 638.72163889 484.59071738 624.93793103 C485.23271832 618.65142837 485.8749645 612.36495106 486.51794434 606.07854843 C489.07684017 581.05842947 491.62240936 556.038095 494 531 C497.63 531 501.26 531 505 531 C502.88031804 524.27557801 499.82168464 518.079665 496.75 511.75 C496.44043365 511.11095734 496.13086731 510.47191467 495.81192017 509.81350708 C484.46294985 486.43718801 471.69395511 464.06191166 458 442 C456.91536191 440.2382829 455.83072625 438.47656429 454.74609375 436.71484375 C440.35142083 413.48493364 424.1154063 391.29554133 407 370 C406.25492188 369.071875 405.50984375 368.14375 404.7421875 367.1875 C396.28490195 356.75987911 387.54599459 346.56999762 378.44921875 336.6953125 C376.48878858 334.53790131 374.56483205 332.35962458 372.65234375 330.16015625 C362.89120808 318.97838581 352.47667046 308.382142 342 297.875 C340.69264893 296.5607605 340.69264893 296.5607605 339.35888672 295.2199707 C334.97240721 290.84400529 330.52270921 286.61509519 325.82275391 282.57763672 C323.0399348 280.16904081 320.37141982 277.6424719 317.6875 275.125 C312.89004372 270.66173293 307.96837627 266.43025571 302.85546875 262.328125 C300.22832753 260.18616034 297.66665492 257.98932269 295.11230469 255.76220703 C286.70235455 248.44191036 277.92857963 241.67279627 269 235 C267.86038818 234.14486816 267.86038818 234.14486816 266.69775391 233.27246094 C255.01698938 224.5210494 243.13764329 216.1057022 231 208 C230.19981445 207.4652002 229.39962891 206.93040039 228.57519531 206.37939453 C156.79626829 158.60809344 76.84377058 123.97901503 -6.5 102.3125 C-7.16429016 102.1392923 -7.82858032 101.96608459 -8.51300049 101.78762817 C-16.160759 99.71638756 -16.160759 99.71638756 -24 99 Z M571 776 C567.11869977 810.67535992 563.23755458 845.35073718 559.35661094 880.02613701 C558.89610761 884.14063443 558.43560302 888.25513171 557.97509766 892.36962891 C557.88343784 893.18858602 557.79177802 894.00754314 557.69734064 894.85131714 C556.22252196 908.02841954 554.74760217 921.20551062 553.27264354 934.38259736 C551.75377972 947.95194804 550.235028 961.52131126 548.71637559 975.09068561 C547.94897348 981.94750692 547.18155499 988.8043264 546.41399382 995.66112991 C546.16550974 997.88090537 545.91703822 1000.10068223 545.66856694 1002.32045913 C545.34505139 1005.21062723 545.02147107 1008.10078807 544.69784808 1010.99094415 C543.9345955 1017.80807139 543.1724028 1024.62531372 542.41262436 1031.44282913 C540.08880314 1052.284782 540.08880314 1052.284782 538.95325255 1062.06196523 C538.5515621 1065.52098239 538.15433554 1068.98050504 537.75743341 1072.44007444 C537.49972861 1074.66637898 537.23443207 1076.89168437 536.96866989 1079.11703873 C536.82232731 1080.39452862 536.67598473 1081.67201851 536.52520752 1082.98822021 C536.39803974 1084.06743618 536.27087196 1085.14665215 536.13985062 1086.25857162 C536.01026854 1088.79871042 536.21311235 1090.60125376 537 1093 C567.71941007 999.83425217 580.0632719 901.71201075 572 776 C571.67 776 571.34 776 571 776 Z M312 890 C306.6457267 939.83595342 301.29479067 989.67226419 295.94834465 1039.50905798 C295.31747529 1045.38966755 294.68657823 1051.27027414 294.05566406 1057.15087891 C293.93005824 1058.32162603 293.80445242 1059.49237316 293.67504036 1060.69859748 C291.63985644 1079.66752321 289.6024278 1098.6362072 287.56417286 1117.60480316 C285.47355922 1137.0611337 283.38535025 1156.51772124 281.29938412 1175.9745506 C280.01164286 1187.98522691 278.72201523 1199.99569762 277.42999148 1212.00591402 C276.54478016 1220.23622715 275.66189984 1228.46678823 274.78086877 1236.69754989 C274.27211779 1241.44974404 273.76232388 1246.20182033 273.2497673 1250.95360565 C272.78073243 1255.30212438 272.31461918 1259.6509459 271.8508476 1264.00002901 C271.68237914 1265.574942 271.51283014 1267.14973984 271.34210265 1268.72440954 C271.11044272 1270.86253897 270.88269887 1273.0010509 270.65592957 1275.13970375 C270.46455052 1276.9224907 270.46455052 1276.9224907 270.26930523 1278.74129355 C270.01501232 1281.81834456 270 1284.91245926 270 1288 C233.04 1288 196.08 1288 158 1288 C157.01 1303.51 156.02 1319.02 155 1335 C150.05063157 1386.37103092 140.49607145 1436.34516147 120 1484 C119.54109375 1485.06750488 119.0821875 1486.13500977 118.609375 1487.23486328 C106.20819833 1515.74649715 90.41785177 1543.41514568 70 1567 C68.60278471 1568.66821811 67.21286134 1570.34233879 65.82348633 1572.01708984 C63.88813776 1574.34959907 61.9439046 1576.67461934 60 1579 C63.91320954 1580.30440318 65.33096411 1579.39824083 69.16796875 1577.96484375 C69.78636627 1577.73558197 70.40476379 1577.50632019 71.04190063 1577.27011108 C73.09487533 1576.50384139 75.14142328 1575.72199006 77.1875 1574.9375 C77.89772308 1574.66779388 78.60794617 1574.39808777 79.33969116 1574.12020874 C114.86992487 1560.6060456 149.82843062 1544.60623671 182.63232422 1525.37548828 C185.49678698 1523.71139433 188.39340598 1522.11141024 191.29614258 1520.51538086 C220.70824844 1504.28965958 248.56446127 1484.67436902 275 1464 C276.13902648 1463.1194081 277.27835756 1462.23921007 278.41796875 1461.359375 C285.08925881 1456.18803391 291.59016082 1450.86188317 297.96728516 1445.33154297 C301.35859085 1442.39228474 304.79802345 1439.54246928 308.3125 1436.75 C314.79102787 1431.49275573 320.77172191 1425.71554044 326.8125 1419.96875 C329.79553471 1417.13109785 332.80878407 1414.333453 335.85742188 1411.56665039 C342.02762664 1405.95926836 347.97042155 1400.13588231 353.875 1394.25 C355.07068604 1393.06120239 355.07068604 1393.06120239 356.29052734 1391.84838867 C360.47304618 1387.65489786 364.49258417 1383.38242601 368.35595703 1378.89355469 C370.99282462 1375.85649721 373.74931085 1372.93365354 376.5 1370 C381.09161458 1365.07483993 385.62982068 1360.12398754 390 1355 C390.81726562 1354.04996094 391.63453125 1353.09992188 392.4765625 1352.12109375 C399.21441022 1344.25483474 405.67569718 1336.20122988 412 1328 C412.61037109 1327.21028809 413.22074219 1326.42057617 413.84960938 1325.60693359 C421.04569397 1316.28150412 428.17100511 1306.91126799 435 1297.3125 C435.51038818 1296.59989014 436.02077637 1295.88728027 436.54663086 1295.15307617 C439.11227688 1291.89058403 439.11227688 1291.89058403 440 1288 C411.95 1288 383.9 1288 355 1288 C354.67 1282.39 354.34 1276.78 354 1271 C353.44416325 1265.03618534 353.44416325 1265.03618534 352.8286562 1259.08034271 C352.75405851 1258.39490754 352.67946082 1257.70947238 352.6026026 1257.00326645 C352.48643467 1255.93689652 352.48643467 1255.93689652 352.36791992 1254.84898376 C352.20243206 1253.30149974 352.03730194 1251.75397742 351.87249279 1250.20642096 C351.42425421 1246.00709179 350.97101799 1241.80831567 350.51687384 1237.60962164 C350.02582878 1233.06130413 349.53954097 1228.51247757 349.05264282 1223.9637146 C348.10059199 1215.07622765 347.14425929 1206.18920654 346.18648934 1197.3023343 C345.07044908 1186.9451474 343.95893141 1176.58747662 342.84764087 1166.22977919 C340.86488566 1147.75090012 338.87840282 1129.27242376 336.88964844 1110.79418945 C334.96094585 1092.87385997 333.03435214 1074.95330564 331.11035156 1057.0324707 C330.99169987 1055.92731088 330.87304817 1054.82215105 330.75080097 1053.68350153 C330.27383937 1049.24087381 329.79688528 1044.79824528 329.31994289 1040.35561549 C327.26267247 1021.192953 325.2038148 1002.03046098 323.14461565 982.86800566 C322.81159925 979.76896136 322.47861101 976.66991403 322.14562607 973.57086635 C320.88164919 961.80768034 319.61684493 950.04458376 318.35087204 938.2816124 C317.96719532 934.71640196 317.58383444 931.15115779 317.2007637 927.58588219 C316.75972536 923.48122143 316.31803541 919.37663132 315.87582362 915.27209682 C315.71611005 913.7886488 315.5566262 912.30517602 315.3973974 910.82167589 C314.65151824 903.87374548 313.90072194 896.92973884 313 890 C312.67 890 312.34 890 312 890 Z " fill="#000000" transform="translate(1198,157)"/>
</svg>
